PathFileType	4	(x/y/z)	S02_M20_T09
DataRate	CameraRate	NumFrames	NumMarkers	Units	OrigDataRate	OrigDataStartFrame	OrigNumFrames
240	240	6	51	mm	240	114	453
Frame#	Time	Sternum			R.Acromium			L.Acromium			Top.Head			R.ASIS			L.ASIS			R.PSIS			L.PSIS			R.Great.Tro			L.Great.Tro			R.Iliac.Crest			L.Iliac.Crest			V.Sacral			R.Thigh.Upper.Post			R.Thigh.Lower.Ant			R.Thigh.Lower.Post			R.Thigh.Upper.Ant			R.Knee.Lat			R.Knee.Med			R.Shank.Upper.Post			R.Shank.Lower.Ant			R.Shank.Lower.Post			R.Shank.Upper.Ant			R.Ankle.Lat			R.Ankle.Med			R.Heel.Upper			R.Heel.Med			R.Heel.Lat			R.Toe.Lat			R.Toe.Med			R.Toe.Tip			L.Thigh.Upper.Post			L.Thigh.Lower.Ant			L.Thigh.Lower.Post			L.Thigh.Upper.Ant			L.Knee.Lat			L.Knee.Med			L.Shank.Upper.Post			L.Shank.Lower.Ant			L.Shank.Lower.Post			L.Shank.Upper.Ant			L.Ankle.Lat			L.Ankle.Med			L.Heel.Upper			L.Heel.Med			L.Heel.Lat			L.Toe.Lat			L.Toe.Med			L.Toe.Tip			Cervical.Spine			Back			
		X1	Y1	Z1	X2	Y2	Z2	X3	Y3	Z3	X4	Y4	Z4	X5	Y5	Z5	X6	Y6	Z6	X7	Y7	Z7	X8	Y8	Z8	X9	Y9	Z9	X10	Y10	Z10	X11	Y11	Z11	X12	Y12	Z12	X13	Y13	Z13	X14	Y14	Z14	X15	Y15	Z15	X16	Y16	Z16	X17	Y17	Z17	X18	Y18	Z18	X19	Y19	Z19	X20	Y20	Z20	X21	Y21	Z21	X22	Y22	Z22	X23	Y23	Z23	X24	Y24	Z24	X25	Y25	Z25	X26	Y26	Z26	X27	Y27	Z27	X28	Y28	Z28	X29	Y29	Z29	X30	Y30	Z30	X31	Y31	Z31	X32	Y32	Z32	X33	Y33	Z33	X34	Y34	Z34	X35	Y35	Z35	X36	Y36	Z36	X37	Y37	Z37	X38	Y38	Z38	X39	Y39	Z39	X40	Y40	Z40	X41	Y41	Z41	X42	Y42	Z42	X43	Y43	Z43	X44	Y44	Z44	X45	Y45	Z45	X46	Y46	Z46	X47	Y47	Z47	X48	Y48	Z48	X49	Y49	Z49	X50	Y50	Z50	X51	Y51	Z51	

114	0.47083	-876.95	1108.6	269.58	-1001.7	1347.7	397.58	-960.83	1344.2	108.82	-930.93	1626.5	260.28	-899.62	937.32	366.97	-908.65	918.04	154.56	-1111.6	974.52	326.7	-1128.6	981.15	254.83	-952.86	826.31	471.1	-1052.7	845.52	82.002	-997.83	988.13	429.05	-1034.3	969.87	98.225	-1146.3	930.29	287.47	-860.89	639.36	461.14	-784.78	587.25	416.36	-842.86	552.03	443.62	-808.34	672.95	430.36	-799	487.42	424.86	-808.15	469.27	279.94	-825.53	270.84	408.53	-731.11	213.83	399.49	-797.98	202.93	401.17	-753.45	279.47	414.09	-752.87	113.91	392.11	-739.75	132.71	311	-802.04	84.469	330.91	-776.17	60.81	303.37	-792.81	52.517	365.04	-641.08	85.328	424.23	-600	99.175	321.52	-568.92	134.32	383.01	-1114.2	627.51	115.99	-1054.2	534.64	120.23	-1131.5	541.18	140.39	-1044.2	626.79	96.983	-1088.6	457.97	135.5	-1087	458.84	274.97	-1200.1	308.61	143.96	-1152.2	208.78	163.73	-1221.8	236.62	167.15	-1143	282.62	143.92	-1213	112.74	181.6	-1205.2	112.75	263.31	-1278.2	87.819	217.21	-1273.5	63.705	251.54	-1274.7	59.617	189.7	-1111.7	33.614	166	-1093.1	45.066	275.3	-1030	54.319	230.3	-1053.8	1404	243.41	-1140.6	1156.4	247.36
115	0.475	-872.23	1107.3	269.64	-996.66	1346.5	397.84	-955.74	1343.2	109.29	-925.98	1625.3	260.87	-894.46	936.24	366.77	-904.2	917.13	154.37	-1106.6	973.41	327.34	-1123.8	980.08	255.5	-947.38	825	470.96	-1048.7	844.98	82.228	-992.61	986.95	429.27	-1030.1	968.78	98.506	-1141.3	929.13	288.18	-855.48	638.21	460.57	-779.7	586.05	415.22	-837.58	550.85	442.97	-803.16	671.76	429.26	-793.57	486.46	424.22	-803.48	467.92	279.13	-815.6	269.53	408.35	-719.94	214.7	399.19	-786.48	202.27	401.05	-743.75	279.87	413.77	-739.2	114.12	392.06	-726.69	133.11	310.98	-787.88	83.452	331.03	-761.49	60.318	303.49	-777.79	51.753	365.21	-626.68	88.095	423.87	-586.19	102.86	321.12	-555.74	138.83	382.45	-1111.2	627.47	116.17	-1051.8	534.2	120.31	-1129	541.25	140.59	-1041.2	626.28	97.043	-1086.6	457.72	135.53	-1085.2	458.59	274.95	-1198.9	308.87	144.07	-1151.4	208.84	163.8	-1221	237	167.22	-1141.9	282.59	144.01	-1212.8	112.98	181.71	-1204.9	113.04	263.48	-1278.1	88.149	217.33	-1273.4	64.034	251.64	-1274.5	60.022	189.79	-1111.7	33.627	166.02	-1093	45.037	275.33	-1029.9	54.236	230.32	-1048.8	1403	243.71	-1135.9	1155.5	247.61
116	0.47917	-867.48	1105.9	269.71	-991.64	1345.3	398.12	-950.65	1342	109.78	-921.02	1624.1	261.47	-889.29	935.13	366.58	-899.73	916.21	154.18	-1101.6	972.27	328	-1119.1	978.96	256.18	-941.9	823.62	470.8	-1044.7	844.4	82.449	-987.35	985.73	429.51	-1026	967.66	98.789	-1136.3	927.95	288.91	-850.12	637.01	459.98	-774.65	584.81	414.13	-832.34	549.62	442.3	-798.02	670.53	428.21	-788.16	485.48	423.59	-798.79	466.57	278.35	-805.79	268.31	408.17	-708.97	215.61	398.89	-775.15	201.72	400.94	-734.2	280.31	413.46	-725.77	114.47	391.99	-713.88	133.63	310.94	-773.96	82.605	331.13	-747.08	59.99	303.59	-763.05	51.171	365.37	-612.61	90.929	423.48	-572.71	106.57	320.7	-542.89	143.33	381.86	-1108.1	627.38	116.37	-1049.4	533.73	120.38	-1126.5	541.28	140.8	-1038.2	625.75	97.106	-1084.5	457.44	135.58	-1083.2	458.3	274.92	-1197.8	309.1	144.21	-1150.7	208.88	163.89	-1220.1	237.37	167.3	-1140.9	282.55	144.13	-1212.6	113.23	181.83	-1204.7	113.32	263.66	-1277.9	88.486	217.45	-1273.3	64.367	251.75	-1274.4	60.438	189.88	-1111.7	33.642	166.04	-1093	45.006	275.36	-1029.9	54.152	230.35	-1043.7	1401.9	244.03	-1131.1	1154.5	247.88
117	0.48333	-862.71	1104.5	269.78	-986.58	1344.1	398.42	-945.55	1340.9	110.27	-916.05	1622.9	262.09	-884.09	933.97	366.4	-895.24	915.25	153.98	-1096.5	971.11	328.69	-1114.3	977.8	256.88	-936.41	822.18	470.64	-1040.6	843.78	82.665	-982.06	984.47	429.75	-1021.9	966.51	99.073	-1131.2	926.73	289.66	-844.81	635.76	459.38	-769.6	583.53	413.09	-827.13	548.36	441.61	-792.88	669.25	427.22	-782.78	484.5	422.97	-794.07	465.22	277.62	-796.1	267.16	408	-698.19	216.57	398.58	-764.01	201.26	400.82	-724.8	280.77	413.15	-712.62	114.92	391.9	-701.35	134.25	310.87	-760.3	81.917	331.21	-732.96	59.812	303.66	-748.58	50.756	365.5	-598.87	93.813	423.06	-559.57	110.29	320.25	-530.36	147.79	381.25	-1105.1	627.26	116.59	-1046.9	533.23	120.45	-1123.9	541.27	141.02	-1035.2	625.18	97.174	-1082.5	457.13	135.63	-1081.2	457.97	274.9	-1196.7	309.31	144.38	-1149.9	208.92	163.99	-1219.2	237.74	167.39	-1139.8	282.48	144.26	-1212.3	113.48	181.95	-1204.4	113.61	263.85	-1277.8	88.836	217.58	-1273.1	64.706	251.86	-1274.3	60.865	189.98	-1111.7	33.659	166.07	-1092.9	44.973	275.39	-1029.9	54.066	230.38	-1038.7	1400.8	244.38	-1126.3	1153.5	248.18
118	0.4875	-857.91	1103	269.86	-981.49	1342.8	398.74	-940.45	1339.7	110.77	-911.06	1621.6	262.72	-878.88	932.77	366.23	-890.74	914.26	153.78	-1091.5	969.93	329.41	-1109.4	976.6	257.59	-930.91	820.69	470.47	-1036.5	843.11	82.878	-976.72	983.18	430.01	-1017.8	965.34	99.359	-1126.2	925.5	290.42	-839.54	634.47	458.77	-764.56	582.22	412.09	-821.95	547.06	440.9	-787.76	667.94	426.29	-777.4	483.52	422.37	-789.32	463.88	276.93	-786.54	266.09	407.84	-687.62	217.55	398.26	-753.06	200.88	400.7	-715.54	281.25	412.84	-699.73	115.46	391.78	-689.09	134.95	310.78	-746.92	81.371	331.26	-719.15	59.768	303.69	-734.43	50.489	365.59	-585.48	96.723	422.62	-546.77	113.98	319.78	-518.17	152.2	380.62	-1101.9	627.1	116.83	-1044.4	532.7	120.52	-1121.3	541.22	141.26	-1032.1	624.58	97.243	-1080.3	456.79	135.68	-1079	457.59	274.88	-1195.5	309.5	144.58	-1149.1	208.93	164.1	-1218.2	238.1	167.5	-1138.6	282.4	144.41	-1212.1	113.74	182.09	-1204.1	113.89	264.05	-1277.6	89.201	217.71	-1273	65.054	251.97	-1274.2	61.306	190.08	-1111.7	33.677	166.1	-1092.9	44.939	275.42	-1029.9	53.977	230.42	-1033.6	1399.7	244.75	-1121.5	1152.5	248.5
119	0.49167	-853.09	1101.5	269.94	-976.37	1341.5	399.08	-935.35	1338.4	111.27	-906.07	1620.3	263.37	-873.64	931.54	366.07	-886.22	913.25	153.57	-1086.5	968.74	330.15	-1104.5	975.36	258.3	-925.4	819.15	470.31	-1032.4	842.4	83.086	-971.36	981.86	430.28	-1013.6	964.14	99.646	-1121.1	924.25	291.19	-834.31	633.15	458.15	-759.51	580.89	411.15	-816.8	545.73	440.18	-782.65	666.61	425.42	-772.04	482.54	421.8	-784.53	462.55	276.29	-777.12	265.09	407.67	-677.26	218.54	397.93	-742.31	200.56	400.57	-706.43	281.73	412.54	-687.14	116.08	391.63	-677.12	135.71	310.65	-733.82	80.952	331.26	-705.65	59.842	303.68	-720.59	50.35	365.64	-572.42	99.634	422.16	-534.33	117.62	319.27	-506.32	156.53	379.98	-1098.8	626.91	117.08	-1041.8	532.14	120.58	-1118.7	541.13	141.5	-1029.1	623.96	97.315	-1078.1	456.41	135.74	-1076.8	457.18	274.86	-1194.3	309.68	144.79	-1148.2	208.94	164.22	-1217.2	238.46	167.61	-1137.4	282.3	144.57	-1211.8	114.01	182.23	-1203.8	114.18	264.25	-1277.4	89.586	217.84	-1272.9	65.413	252.09	-1274	61.761	190.18	-1111.7	33.697	166.13	-1092.8	44.902	275.45	-1029.9	53.886	230.46	-1028.5	1398.6	245.14	-1116.7	1151.4	248.85
